<svg width="219" height="40" viewBox="0 0 219 40" fill="none" xmlns="http://www.w3.org/2000/svg">
    <g id="OH_festiwal_logo.20ccbd7632474de264f51ec579bb1734 1">
        <g id="Warstwa_x0020_1">
            <g id="_2046979230928">
                <g id="Group">
                    <path id="Vector" fill-rule="evenodd" clip-rule="evenodd"
                        d="M11.3958 0C17.6895 0 22.7916 5.09133 22.7916 11.3718C22.7916 17.6522 17.6895 22.7436 11.3958 22.7436C5.10208 22.7436 0 17.6522 0 11.3718C0 5.09133 5.10208 0 11.3958 0Z"
                        fill="#FF59A9" />
                    <path id="Vector_2" fill-rule="evenodd" clip-rule="evenodd"
                        d="M48.9988 15.6278V27.7715C48.9988 32.5171 41.8092 32.5172 41.8092 27.7715V19.1667H34.313C34.1739 19.1667 34.0393 19.1601 33.9084 19.1482V27.6577C33.9084 32.4034 26.7188 32.4033 26.7188 27.6577V3.56023C26.7188 -1.18538 33.9084 -1.1855 33.9084 3.56023V12.0109C34.0393 11.999 34.174 11.9923 34.313 11.9923H45.4321C47.8213 11.9923 49.0097 13.8031 48.9983 15.6053C48.9983 15.6129 48.9988 15.6203 48.9988 15.6278V15.6278Z"
                        fill="#FF59A9" />
                </g>
                <path id="Vector_3" fill-rule="evenodd" clip-rule="evenodd"
                    d="M2.75809 37.6806C2.75809 36.6573 2.05337 36.206 1.3803 36.206C0.712473 36.206 0.0078125 36.6573 0.0078125 37.6806C0.0078125 38.6986 0.712533 39.1499 1.3803 39.1499C2.05337 39.1499 2.75809 38.6986 2.75809 37.6806ZM1.3803 38.6881C0.970126 38.6881 0.586238 38.3786 0.586238 37.6806C0.586238 36.9669 0.970126 36.6678 1.3803 36.6678C1.79578 36.6678 2.17967 36.9774 2.17967 37.6806C2.17967 38.368 1.79578 38.6881 1.3803 38.6881ZM3.98897 36.2585H3.44207V40H3.98897V38.6829C4.16247 38.9715 4.45695 39.1499 4.87237 39.1499C5.52971 39.1499 6.0924 38.5989 6.0924 37.6753C6.0924 36.757 5.52971 36.206 4.87237 36.206C4.45695 36.206 4.16247 36.3845 3.98897 36.673V36.2584V36.2585ZM4.7462 38.6934C4.32548 38.6934 3.96793 38.3733 3.96793 37.6754C3.96793 36.9774 4.32554 36.6626 4.7462 36.6626C5.19845 36.6626 5.50873 37.0405 5.50873 37.6754C5.50873 38.3104 5.19845 38.6934 4.7462 38.6934ZM8.74839 38.2526C8.63271 38.5202 8.40134 38.6829 8.00696 38.6829C7.56526 38.6829 7.23394 38.3575 7.18137 37.838H9.33737C9.39518 36.9197 8.88512 36.2061 8.01221 36.2061C7.20765 36.2061 6.61874 36.7885 6.61874 37.6649C6.61874 38.4835 7.11307 39.15 8.02806 39.15C8.74846 39.15 9.16918 38.7198 9.30066 38.2526H8.74846L8.74839 38.2526ZM7.19186 37.4078C7.26547 36.8725 7.58099 36.6521 8.0069 36.6521C8.45915 36.6521 8.75364 36.988 8.76943 37.4078H7.19186ZM10.5577 36.6679V36.2586H10.0108V39.0818H10.5577V37.5652C10.5577 37.0037 10.7891 36.6626 11.2624 36.6626C11.7777 36.6626 11.8461 37.0405 11.8461 37.4498V39.0817H12.393V37.3028C12.393 36.6469 12.1301 36.2061 11.4465 36.2061C11.0047 36.2061 10.7208 36.3898 10.5578 36.6679H10.5577ZM14.9911 36.6679V35.2773H14.4442V39.0818H14.9911V37.5652C14.9911 37.0037 15.2225 36.6626 15.6958 36.6626C16.2111 36.6626 16.2795 37.0405 16.2795 37.4498V39.0817H16.8264V37.3028C16.8264 36.6469 16.5635 36.2061 15.8799 36.2061C15.4381 36.2061 15.1542 36.3898 14.9912 36.6679H14.9911ZM20.208 37.6806C20.208 36.6574 19.5033 36.2061 18.8302 36.2061C18.1624 36.2061 17.4577 36.6574 17.4577 37.6806C17.4577 38.6987 18.1625 39.1499 18.8302 39.1499C19.5033 39.1499 20.208 38.6987 20.208 37.6806ZM18.8302 38.6882C18.4201 38.6882 18.0362 38.3786 18.0362 37.6806C18.0362 36.967 18.4201 36.6679 18.8302 36.6679C19.2457 36.6679 19.6296 36.9775 19.6296 37.6806C19.6296 38.3681 19.2457 38.6882 18.8302 38.6882ZM22.6378 38.683V39.0817H23.19V36.2585H22.6431V37.7908C22.6431 38.347 22.417 38.6881 21.9595 38.6881C21.4652 38.6881 21.3968 38.3156 21.3968 37.9063V36.2585H20.8499V38.0532C20.8499 38.7354 21.1076 39.1499 21.7754 39.1499C22.2014 39.1499 22.4748 38.9663 22.6378 38.683ZM25.6672 37.0457H26.2088C26.1036 36.5 25.6461 36.2009 25.0782 36.2009C24.4577 36.2009 23.9318 36.5052 23.9318 37.0038C23.9318 37.5338 24.3315 37.7227 24.7574 37.8067L25.1834 37.8907C25.4779 37.9484 25.725 38.0533 25.725 38.3158C25.725 38.5676 25.4516 38.7145 25.0992 38.7145C24.7048 38.7145 24.4945 38.5256 24.4209 38.2055H23.8635C23.9318 38.7356 24.3683 39.1501 25.0835 39.1501C25.7355 39.1501 26.2719 38.8247 26.2719 38.2527C26.2719 37.7017 25.8039 37.5181 25.2675 37.4131L24.8626 37.3344C24.6049 37.2819 24.4682 37.1927 24.4682 36.9827C24.4682 36.7519 24.7574 36.6416 25.0256 36.6416C25.3464 36.6416 25.5883 36.7571 25.6671 37.0457H25.6672ZM28.8911 38.2526C28.7754 38.5203 28.544 38.683 28.1497 38.683C27.708 38.683 27.3766 38.3576 27.3241 37.8381H29.4801C29.5379 36.9198 29.0278 36.2062 28.1549 36.2062C27.3504 36.2062 26.7614 36.7886 26.7614 37.665C26.7614 38.4836 27.2558 39.1501 28.1708 39.1501C28.8912 39.1501 29.3119 38.7198 29.4434 38.2527H28.8912L28.8911 38.2526ZM27.3346 37.4079C27.4082 36.8726 27.7237 36.6522 28.1496 36.6522C28.6019 36.6522 28.8963 36.988 28.9121 37.4079H27.3346ZM31.4839 36.0697V36.2586H31.0895V36.6732H31.4839V39.0818H32.0308V36.6732H32.5777V36.2586H32.0308V36.0644C32.0308 35.7706 32.0886 35.7128 32.3674 35.7128H32.5777V35.2773H32.3305C31.668 35.2773 31.4839 35.4452 31.4839 36.0697ZM35.0759 38.2526C34.9603 38.5203 34.7289 38.683 34.3345 38.683C33.8928 38.683 33.5615 38.3576 33.5089 37.8381H35.6649C35.7227 36.9198 35.2127 36.2062 34.3397 36.2062C33.5352 36.2062 32.9463 36.7886 32.9463 37.665C32.9463 38.4836 33.4406 39.1501 34.3556 39.1501C35.076 39.1501 35.4967 38.7198 35.6282 38.2527H35.076L35.0759 38.2526ZM33.5194 37.4079C33.593 36.8726 33.9085 36.6522 34.3344 36.6522C34.7867 36.6522 35.0812 36.988 35.097 37.4079H33.5194ZM37.958 37.0458H38.4996C38.3945 36.5 37.937 36.2009 37.369 36.2009C36.7485 36.2009 36.2227 36.5053 36.2227 37.0038C36.2227 37.5339 36.6223 37.7228 37.0482 37.8068L37.4742 37.8907C37.7687 37.9484 38.0159 38.0534 38.0159 38.3158C38.0159 38.5677 37.7424 38.7146 37.3901 38.7146C36.9956 38.7146 36.7854 38.5257 36.7117 38.2056H36.1543C36.2227 38.7356 36.6591 39.1501 37.3743 39.1501C38.0264 39.1501 38.5628 38.8247 38.5628 38.2528C38.5628 37.7018 38.0947 37.5181 37.5583 37.4132L37.1534 37.3344C36.8957 37.282 36.759 37.1927 36.759 36.9828C36.759 36.752 37.0483 36.6417 37.3165 36.6417C37.6372 36.6417 37.8791 36.7572 37.9579 37.0458H37.958ZM39.3572 35.5345V36.2586H38.926V36.6732H39.3572V38.3577C39.3572 38.9402 39.4834 39.0819 40.0566 39.0819H40.4562V38.6463H40.2249C39.9514 38.6463 39.9041 38.5729 39.9041 38.2843V36.6733H40.4615V36.2587H39.9041V35.5345H39.3572V35.5345ZM41.7292 35.2773H41.1823V35.8808H41.7292V35.2773ZM41.7292 36.2586H41.1823V39.0818H41.7292V36.2586ZM43.5543 38.3524L42.8391 36.2586H42.2344L43.2861 39.0818H43.7857L44.8322 36.2586H44.2642L43.5543 38.3524H43.5543ZM45.0902 38.3209C45.0902 38.8351 45.5266 39.15 46.0998 39.15C46.5574 39.15 46.8781 38.9926 47.0464 38.7092C47.0569 38.8877 47.0726 38.9716 47.0937 39.0818H47.6196C47.567 38.8299 47.5407 38.4835 47.5407 38.0638C47.5407 37.9431 47.5512 37.4551 47.5512 37.3869C47.5618 36.542 47.1411 36.1904 46.4101 36.1904C45.7633 36.1904 45.269 36.5525 45.2217 37.1508H45.7739C45.7949 36.8044 46.0105 36.6102 46.3891 36.6102C46.7362 36.6102 46.9991 36.7781 46.9991 37.2767V37.3344C45.9001 37.4499 45.0902 37.6335 45.0902 38.3209V38.3209ZM47.0254 37.7384V37.9431C47.0254 38.5046 46.673 38.7302 46.2208 38.7302C45.8895 38.7302 45.6844 38.5675 45.6844 38.3104C45.6844 37.9431 46.1472 37.8223 47.0254 37.7384ZM48.9083 39.0818V35.2773H48.3615V39.0818H48.9083Z"
                    fill="#FF59A9" />
            </g>
        </g>
    </g>
</svg>