<svg width="20" height="20" viewBox="0 0 20 20" fill="none" xmlns="http://www.w3.org/2000/svg">
<g id="User">
<path id="Vector" d="M10 9.76329C9.0375 9.76329 8.25 9.44767 7.6375 8.81643C7.025 8.18518 6.71875 7.37359 6.71875 6.38164C6.71875 5.38969 7.025 4.5781 7.6375 3.94686C8.25 3.31562 9.0375 3 10 3C10.9625 3 11.75 3.31562 12.3625 3.94686C12.975 4.5781 13.2812 5.38969 13.2812 6.38164C13.2812 7.37359 12.975 8.18518 12.3625 8.81643C11.75 9.44767 10.9625 9.76329 10 9.76329ZM3 17V14.8808C3 14.3097 3.13854 13.8213 3.41563 13.4155C3.69271 13.0097 4.05 12.7016 4.4875 12.4911C5.46458 12.0403 6.40156 11.7021 7.29844 11.4767C8.19531 11.2512 9.09583 11.1385 10 11.1385C10.9042 11.1385 11.801 11.255 12.6906 11.4879C13.5802 11.7209 14.513 12.0567 15.4889 12.4955C15.9454 12.7078 16.3113 13.0157 16.5868 13.4191C16.8623 13.8225 17 14.3097 17 14.8808V17H3ZM4.3125 15.6473H15.6875V14.8808C15.6875 14.6404 15.6182 14.4112 15.4797 14.1932C15.3411 13.9753 15.1698 13.8137 14.9656 13.7085C14.0323 13.2426 13.1792 12.9232 12.4062 12.7504C11.6333 12.5776 10.8312 12.4911 10 12.4911C9.16875 12.4911 8.35938 12.5776 7.57188 12.7504C6.78437 12.9232 5.93125 13.2426 5.0125 13.7085C4.80833 13.8137 4.64062 13.9753 4.50937 14.1932C4.37812 14.4112 4.3125 14.6404 4.3125 14.8808V15.6473ZM10 8.41063C10.5687 8.41063 11.0391 8.219 11.4109 7.83575C11.7828 7.4525 11.9688 6.96779 11.9688 6.38164C11.9688 5.79549 11.7828 5.31079 11.4109 4.92754C11.0391 4.54428 10.5687 4.35266 10 4.35266C9.43125 4.35266 8.96094 4.54428 8.58906 4.92754C8.21719 5.31079 8.03125 5.79549 8.03125 6.38164C8.03125 6.96779 8.21719 7.4525 8.58906 7.83575C8.96094 8.219 9.43125 8.41063 10 8.41063Z" fill="#3E1DAA"/>
</g>
</svg>
